# xmcd
#
# Track frame offsets:
#	150
#	11315
#	22187
#	33539
#	46235
#	56772
#	69362
#	80386
#	89814
#	99986
#	112817
#	122968
#	135671
#	146266
#	156993
#	167230
#	178186
#	189502
#	202243
#	213354
#	224396
#	235991
#	247607
#	260026
#	271478
#	284031
#
# Disc length: 3945 seconds
#
# Revision: 1
# Processed by: cddbd v1.5.2PL0 Copyright (c) Steve Scherf et al.
# Submitted via: audiograbber 1.83.01
#
DISCID=880f671a
DTITLE=Porter Wagoner - The Thin Man From The West Plains (Box Set)(CD 1)
DYEAR=1993
DGENRE=Country
TTITLE0=Settin' The Woods On Fire
TTITLE1=Headin' For A Weddin'
TTITLE2=Lovin' Letters
TTITLE3=I Can't Live With You (I Can't Live Without You)
TTITLE4=Bringing Home The Bacon
TTITLE5=An Angel Made Of Ice
TTITLE6=Takin' Chances
TTITLE7=All Roads Lead To Love
TTITLE8=That's It
TTITLE9=A Beggar For Your Love
TTITLE10=Trademark
TTITLE11=Don't Play That Song
TTITLE12=The Flame Of Love
TTITLE13=Dig That Crazy Moon
TTITLE14=Trinidad
TTITLE15=Bad News Travel Fast
TTITLE16=Get Out Of Here
TTITLE17=My Bonfire
TTITLE18=Town Crier
TTITLE19=Love At First Sight
TTITLE20=Be Glad You Ain't Me
TTITLE21=Our Shivaree
TTITLE22=Company's Comin'
TTITLE23=Tricks Of The Trade
TTITLE24=A Satisfied Mind
TTITLE25=A Good Time Was Had By All
EXTD=
EXTT0=
EXTT1=
EXTT2=
EXTT3=
EXTT4=
EXTT5=
EXTT6=
EXTT7=
EXTT8=
EXTT9=
EXTT10=
EXTT11=
EXTT12=
EXTT13=
EXTT14=
EXTT15=
EXTT16=
EXTT17=
EXTT18=
EXTT19=
EXTT20=
EXTT21=
EXTT22=
EXTT23=
EXTT24=
EXTT25=
PLAYORDER=
